# xmcd CD database file
#
# Track frame offsets:
#	150
#	8030
#	23485
#	41162
#	48115
#	67087
#	76310
#	94417
#	108927
#	133380
#	142332
#	163912
#	178050
#	191097
#
# Disc length: 2909 seconds
#
# Revision: 5
# Processed by: cddbd v1.5.2PL0 Copyright (c) Steve Scherf et al.
# Submitted via: CDex 1.51
#
DISCID=c90b5b0e
DTITLE=Jean-Baptiste Pergolèse - La Serva padrona  (Hans Ludwig Hirsch, Musica Poetica Freiburg)
DYEAR=1900
DGENRE=Classique
TTITLE0=Intermezzo primo - Introduzione: Aspettare e non venire - Uberto
TTITLE1=Intermezzo primo - Recitativo: Questa e' per me disgrazia - Uberto, Serpina
TTITLE2=Intermezzo primo - Aria: Sempre in contrasti - Uberto
TTITLE3=Intermezzo primo - Recitativo: In somma delle somme - Serpina, Uberto
TTITLE4=Intermezzo primo - Aria: Stizzoso, mio stizzoso - Serpina
TTITLE5=Intermezzo primo - Recitativo: Benissimo, hai tu inteso ¿ - Uberto, Serpina
TTITLE6=Intermezzo primo - Duetto: Lo conosco a quegli occhietti - Serpina, Uberto
TTITLE7=Intermezzo secondo - Recitativo: Or che fatto ti sei - Serpina, Uberto
TTITLE8=Intermezzo secondo - Aria: A Serpina penserete - Serpina
TTITLE9=Intermezzo secondo - Recitativo: Ah quanto mi sa male - Uberto
TTITLE10=Intermezzo secondo - Aria: Son imbrogliato io già - Uberto
TTITLE11=Intermezzo secondo - Recitativo: Favorisca, signor passi - Serpina, Uberto
TTITLE12=Intermezzo secondo - Duetto: Contento tu sarai - Serpina, Uberto
TTITLE13=Intermezzo secondo - Duetto: Per te ho io nel core - Serpina, Uberto
EXTD=\n
EXTT0=
EXTT1=
EXTT2=
EXTT3=
EXTT4=
EXTT5=
EXTT6=
EXTT7=
EXTT8=
EXTT9=
EXTT10=
EXTT11=
EXTT12=
EXTT13=
PLAYORDER=
